# Blender 5.0.1
# www.blender.org
mtllib axis.mtl
o Cube
v 0.200000 -0.200000 0.200000
v 0.200000 0.200000 0.200000
v 0.200000 -0.200000 -0.200000
v 0.200000 0.200000 -0.200000
v 4.000000 -0.200000 0.200000
v 4.000000 0.200000 0.200000
v 4.000000 -0.200000 -0.200000
v 4.000000 0.200000 -0.200000
v -0.200000 2.000000 0.200000
v 0.200000 2.000000 0.200000
v -0.200000 2.000000 -0.200000
v 0.200000 2.000000 -0.200000
v -0.200000 0.200000 0.200000
v 0.200000 0.200000 0.200000
v -0.200000 0.200000 -0.200000
v 0.200000 0.200000 -0.200000
v 0.200000 -0.200000 -0.200000
v 0.200000 0.200000 -0.200000
v -0.200000 -0.200000 -0.200000
v -0.200000 0.200000 -0.200000
v 0.200000 -0.200000 -1.000000
v 0.200000 0.200000 -1.000000
v -0.200000 -0.200000 -1.000000
v -0.200000 0.200000 -1.000000
vn -1.0000 -0.0000 -0.0000
vn -0.0000 -0.0000 -1.0000
vn 1.0000 -0.0000 -0.0000
vn -0.0000 -0.0000 1.0000
vn -0.0000 -1.0000 -0.0000
vn -0.0000 1.0000 -0.0000
vt 0.875000 0.250000
vt 0.750000 0.125000
vt 0.875000 0.125000
vt 1.000000 0.250000
vt 0.000000 0.000000
vt 1.000000 0.000000
vt 0.375000 0.875000
vt 0.250000 0.750000
vt 0.375000 0.750000
vt 1.000000 0.750000
vt 0.000000 0.500000
vt 1.000000 0.500000
vt 1.000000 0.125000
vt 0.000000 0.375000
vt 0.000000 0.125000
vt 0.000000 1.000000
vt 1.000000 1.000000
vt 0.125000 0.875000
vt 0.125000 1.000000
vt 0.250000 1.000000
vt 0.375000 1.000000
vt 0.875000 0.000000
vt 0.125000 0.750000
vt 0.000000 0.750000
vt 0.500000 1.000000
vt 0.750000 0.375000
vt 0.625000 0.250000
vt 0.750000 0.250000
vt 0.625000 0.875000
vt 0.750000 0.500000
vt 0.750000 0.875000
vt 0.625000 0.750000
vt 0.500000 0.625000
vt 0.625000 0.625000
vt 0.500000 0.500000
vt 0.375000 0.500000
vt 0.250000 0.375000
vt 0.375000 0.874969
vt 0.250000 0.875000
vt 0.625000 0.500000
vt 1.000000 0.375000
vt 0.000000 0.875000
vt 0.500000 0.750000
vt 0.625000 0.375000
vt 0.500000 0.875000
vt 0.375000 0.375000
vt 0.375000 0.875031
vt 0.000000 0.250000
s 0
usemtl Material.001
f 2/1/1 3/2/1 1/3/1
f 4/4/2 7/5/2 3/6/2
f 8/7/3 5/8/3 7/9/3
f 6/10/4 1/11/4 5/12/4
f 7/13/5 1/14/5 3/15/5
f 4/16/6 6/10/6 8/17/6
f 10/16/6 11/18/6 9/19/6
f 12/20/2 15/9/2 11/21/2
f 16/6/5 13/3/5 15/22/5
f 14/23/4 9/16/4 13/24/4
f 15/9/1 9/25/1 11/21/1
f 12/20/3 14/23/3 16/8/3
f 18/26/4 19/27/4 17/28/4
f 20/29/1 23/30/1 19/31/1
f 24/32/2 21/33/2 23/34/2
f 22/35/3 17/7/3 21/36/3
f 23/37/5 17/38/5 19/39/5
f 20/29/6 22/35/6 24/40/6
f 2/1/1 4/28/1 3/2/1
f 8/7/3 6/39/3 5/8/3
f 6/10/4 2/24/4 1/11/4
f 7/13/5 5/41/5 1/14/5
f 4/16/6 2/24/6 6/10/6
f 10/16/6 12/42/6 11/18/6
f 14/23/4 10/19/4 9/16/4
f 15/9/1 13/43/1 9/25/1
f 12/20/3 10/19/3 14/23/3
f 18/26/4 20/44/4 19/27/4
f 20/29/1 24/40/1 23/30/1
f 22/35/3 18/45/3 17/7/3
f 23/37/5 21/46/5 17/47/5
f 20/29/6 18/45/6 22/35/6
f 4/4/2 8/48/2 7/5/2
f 16/6/5 14/13/5 13/3/5
f 24/32/2 22/43/2 21/33/2
f 12/20/2 16/8/2 15/9/2
